<?xml version="1.0" encoding="utf-8"?>
<svg version="1.1" xmlns:xlink="http://www.w3.org/1999/xlink" width="45px" height="45px" xmlns="http://www.w3.org/2000/svg">
  <g transform="matrix(1 0 0 1 -16 -159 )">
    <path d="M 17 181.5  A 21.5 21.5 0 0 1 38.5 160 A 21.5 21.5 0 0 1 60 181.5 A 21.5 21.5 0 0 1 38.5 203 A 21.5 21.5 0 0 1 17 181.5 Z " fill-rule="nonzero" fill="#ffffff" stroke="none" />
    <path d="M 16.5 181.5  A 22 22 0 0 1 38.5 159.5 A 22 22 0 0 1 60.5 181.5 A 22 22 0 0 1 38.5 203.5 A 22 22 0 0 1 16.5 181.5 Z " stroke-width="1" stroke="#797979" fill="none" stroke-opacity="0.996078431372549" />
  </g>
</svg>