<?xml version="1.0" encoding="utf-8"?>
<svg version="1.1" xmlns:xlink="http://www.w3.org/1999/xlink" width="55px" height="55px" xmlns="http://www.w3.org/2000/svg">
  <g transform="matrix(1 0 0 1 -15 -663 )">
    <path d="M 16 690.5  A 26.5 26.5 0 0 1 42.5 664 A 26.5 26.5 0 0 1 69 690.5 A 26.5 26.5 0 0 1 42.5 717 A 26.5 26.5 0 0 1 16 690.5 Z " fill-rule="nonzero" fill="#ffffff" stroke="none" />
    <path d="M 15.5 690.5  A 27 27 0 0 1 42.5 663.5 A 27 27 0 0 1 69.5 690.5 A 27 27 0 0 1 42.5 717.5 A 27 27 0 0 1 15.5 690.5 Z " stroke-width="1" stroke="#797979" fill="none" stroke-opacity="0.996078431372549" />
  </g>
</svg>