<?xml version="1.0" encoding="utf-8"?>
<svg version="1.1" xmlns:xlink="http://www.w3.org/1999/xlink" width="30px" height="30px" xmlns="http://www.w3.org/2000/svg">
  <g transform="matrix(1 0 0 1 -25 -221 )">
    <path d="M 40 221  C 48.4 221  55 227.6  55 236  C 55 244.4  48.4 251  40 251  C 31.6 251  25 244.4  25 236  C 25 227.6  31.6 221  40 221  Z " fill-rule="nonzero" fill="#ffffff" stroke="none" />
    <path d="M 40 221.5  C 48.12 221.5  54.5 227.88  54.5 236  C 54.5 244.12  48.12 250.5  40 250.5  C 31.88 250.5  25.5 244.12  25.5 236  C 25.5 227.88  31.88 221.5  40 221.5  Z " stroke-width="1" stroke="#797979" fill="none" />
  </g>
</svg>