<?xml version="1.0" encoding="utf-8"?>
<svg version="1.1" xmlns:xlink="http://www.w3.org/1999/xlink" width="20px" height="20px" xmlns="http://www.w3.org/2000/svg">
  <g transform="matrix(1 0 0 1 -137 -414 )">
    <path d="M 147 414  C 152.6 414  157 418.4  157 424  C 157 429.6  152.6 434  147 434  C 141.4 434  137 429.6  137 424  C 137 418.4  141.4 414  147 414  Z " fill-rule="nonzero" fill="#ffffff" stroke="none" />
    <path d="M 147 414.5  C 152.32 414.5  156.5 418.68  156.5 424  C 156.5 429.32  152.32 433.5  147 433.5  C 141.68 433.5  137.5 429.32  137.5 424  C 137.5 418.68  141.68 414.5  147 414.5  Z " stroke-width="1" stroke="#ffb185" fill="none" />
  </g>
</svg>